<svg width="280" height="67" viewBox="0 0 280 67" fill="none" xmlns="http://www.w3.org/2000/svg">
<path d="M68.6585 0.231386C69.4134 0.231386 70.1602 0.114624 70.8467 0.280182C71.1924 0.363833 71.5429 0.911047 71.6962 1.33104C72.5294 3.60878 73.2974 5.9144 74.0964 8.20782C74.5334 9.46258 74.9899 10.7086 75.4351 11.9599C75.4644 12.0401 75.4693 12.1289 75.4905 12.2126C76.1004 14.4921 76.6123 16.8081 77.3689 19.0301C77.6706 19.9137 77.7603 20.7781 77.9298 21.6616C78.1858 22.9983 78.6147 24.2966 78.8625 25.6333C79.1153 26.9926 79.3729 28.3781 79.3843 29.7548C79.4022 31.7955 79.3142 33.8537 79.0647 35.8753C78.887 37.313 78.2038 38.7229 77.0738 39.5001C76.0547 40.2007 74.7617 40.652 73.5485 40.781C71.1858 41.032 68.9373 40.2216 66.7409 39.3468C61.665 37.3269 57.0766 34.312 52.6806 31.027C43.8332 24.4151 35.1244 17.5924 26.3438 10.8777C22.331 7.80873 18.2856 4.7886 14.2467 1.75627C14.0103 1.57851 13.7135 1.49312 13.4102 1.34673C13.3972 1.08183 13.3809 0.780343 13.3613 0.367318C14.4766 0.302838 15.512 -0.0718473 16.5849 0.755945C22.8756 5.60942 29.1973 10.4176 35.5206 15.2223C42.5043 20.5271 49.4293 25.9295 56.5304 31.0497C59.8861 33.4703 63.5499 35.4274 67.1616 37.4123C68.9292 38.3848 70.8679 38.9825 72.9224 39.1045C74.2513 39.1829 75.8607 37.604 76.2438 36.3284C77.0591 33.6219 76.7721 30.8754 76.5879 28.1567C76.4754 26.5116 75.9422 24.8961 75.5688 23.2736C74.9785 20.6979 74.4029 18.1169 73.7426 15.5621C73.4556 14.4502 72.9566 13.4029 72.5832 12.3137C72.2359 11.2977 71.9685 10.2503 71.5935 9.24648C71.15 8.0562 70.8793 6.8119 70.3086 5.65299C69.6254 4.26578 69.1835 2.7409 68.6699 1.26133C68.5835 1.01212 68.6568 0.698435 68.6568 0.229643L68.6585 0.231386Z" fill="#805647"/>
<path d="M76.405 66.3643C73.6265 66.8523 71.2573 66.326 68.9305 65.181C64.1807 62.844 59.7048 60.0121 55.5094 56.7027C51.495 53.5362 47.5148 50.3104 43.6585 46.9295C38.1146 42.0691 32.4484 37.3864 26.5784 32.993C20.6611 28.5647 14.5334 24.4902 8.01773 21.1233C5.87518 20.0167 3.72447 18.924 1.58681 17.8069C1.40582 17.7128 1.19221 17.4793 1.17102 17.2876C1.11232 16.7839 1.15145 16.2681 1.15145 15.5605C2.36622 16.0868 3.42934 16.4859 4.44029 16.9983C9.80809 19.7169 15.1237 22.5471 20.1654 25.9193C26.655 30.2604 32.9359 34.9222 38.9087 40.0493C43.7547 44.2091 48.56 48.4248 53.4859 52.4748C56.7698 55.1743 60.1174 57.8302 63.6508 60.1324C67.4271 62.5931 71.3764 64.7976 75.699 66.0594C75.8718 66.1099 76.0349 66.2023 76.4066 66.3643H76.405Z" fill="#805647"/>
<path d="M77.6065 54.0206C73.9862 53.6376 71.814 53.1182 68.6473 51.9349C63.8975 49.5979 59.4216 46.766 55.2262 43.4566C51.2118 40.2901 47.2316 37.0643 43.3753 33.6834C37.8314 28.823 32.1652 24.1403 26.2952 19.7469C20.3779 15.3186 14.2502 11.2442 7.73453 7.87722C5.59198 6.77059 3.44127 5.6779 1.30361 4.56082C1.12261 4.46671 0.909011 4.23319 0.887814 4.04149C0.829114 3.53784 0.868247 3.022 0.868247 2.31445C2.08301 2.84075 3.14614 3.23984 4.15708 3.7522C9.52488 6.47084 14.8405 9.30102 19.8822 12.6732C26.3718 17.0143 32.6527 21.6761 38.6255 26.8032C43.4715 30.963 48.2767 35.1787 53.2027 39.2288C56.4866 41.9282 59.8341 44.5841 63.3676 46.8863C67.1439 49.347 73.2621 51.5519 77.6065 51.9349V54.0206Z" fill="#805647"/>
<path d="M25.3055 0.426408C26.716 0.156287 28.0335 0.0377817 29.3184 1.15487C32.0104 3.49534 34.7791 5.73996 37.5608 7.9567C42.4509 11.8534 47.2235 15.9279 52.4919 19.2565C54.5741 20.5723 56.7117 21.7434 59.0434 22.4788C60.9055 23.0661 62.2426 22.362 62.3926 20.3213C62.5654 17.9756 62.603 15.555 62.2556 13.2441C61.8301 10.4087 60.9659 7.64476 60.2452 4.86512C60.0022 3.92928 59.6044 3.03875 59.306 2.11685C59.1967 1.77876 59.0809 1.39536 59.1282 1.05902C59.169 0.776695 59.4413 0.309646 59.6141 0.309646C60.2761 0.304418 61.1322 -0.225369 61.5692 0.57454C62.0632 1.48075 62.3959 2.51244 62.6633 3.53019C63.5324 6.83788 64.4275 10.1421 65.1385 13.4898C65.6016 15.6682 65.5217 17.9129 65.326 20.1557C65.1417 22.2679 63.5389 23.5872 62.179 24.0542C60.868 24.5056 59.5554 24.455 58.2445 24.1257C55.0877 23.331 52.2799 21.7085 49.552 19.8943C43.5531 15.9052 38.0745 11.1459 32.4164 6.65315C30.4157 5.06379 28.459 3.41169 26.4844 1.78399C26.0475 1.42499 25.6219 1.04856 25.1914 0.680845C25.2289 0.595452 25.2664 0.510059 25.3039 0.424666L25.3055 0.426408Z" fill="#805647"/>
<path d="M1.22019 30.1578C1.07181 28.9361 1.09789 28.9065 2.12189 28.9083C4.28075 28.91 6.28144 29.6768 8.27561 30.4192C16.4806 33.4759 23.9453 37.9443 30.598 43.9288C33.5346 46.5707 36.194 49.5055 38.485 52.8062C39.0752 53.6584 39.747 54.474 40.1922 55.4081C41.12 57.3564 42.0005 59.3414 42.7489 61.3751C43.256 62.7536 43.5185 64.2367 43.8609 65.6814C44.0093 66.307 43.8316 66.6904 43.1207 66.6103C42.6657 66.5597 42.2027 66.5998 41.7461 66.5998C41.495 65.4496 41.2569 64.3674 41.0238 63.2834C40.9879 63.1161 41.0026 62.9296 40.9455 62.7728C39.3149 58.2243 36.9539 54.1568 33.8917 50.5476C27.1836 42.6409 19.0063 37.0154 9.81323 33.0385C7.23369 31.9232 4.49435 31.2313 1.82838 30.346C1.62293 30.278 1.41585 30.2188 1.22019 30.1578Z" fill="#805647"/>
<path d="M1.20311 42.1862C1.08571 40.9035 1.14441 40.8059 2.04937 40.8582C10.2234 41.3305 17.7565 43.9254 24.538 48.8294C28.5052 51.6979 31.5087 55.5197 33.4099 60.246C34.067 61.8789 34.5105 63.6129 35.0176 65.3121C35.1285 65.6815 35.0975 66.1015 35.1399 66.6086C34.5546 66.6086 34.0458 66.5773 33.5404 66.6174C33.0039 66.6609 32.7887 66.4361 32.6713 65.8732C31.9603 62.4435 30.6771 59.2666 28.7612 56.4103C26.1278 52.4856 22.6613 49.5945 18.6746 47.3969C13.897 44.7619 8.79336 43.2701 3.47937 42.5312C2.72931 42.4267 1.98089 42.3047 1.19985 42.1862H1.20311Z" fill="#805647"/>
<path d="M1.2509 56.6038C1.07969 55.3368 1.27861 55.0301 2.6972 54.8087C6.80947 54.1674 10.9527 53.6673 15.0927 54.2093C18.0342 54.5944 20.6546 55.9276 22.7938 58.2576C24.3152 59.9149 25.5576 61.7326 26.4055 63.8709C26.7431 64.7231 27.1507 65.5439 27.5355 66.3996C25.7876 66.8649 24.9918 66.6244 24.5092 64.9444C24.1586 63.721 23.3205 62.637 22.6177 61.5513C21.1339 59.2614 19.3126 57.313 16.8032 56.4086C15.3618 55.8892 13.798 55.6313 12.2735 55.5302C9.06454 55.3194 5.8931 55.8352 2.73797 56.4277C2.26347 56.5166 1.7792 56.5428 1.25253 56.6038H1.2509Z" fill="#805647"/>
<path d="M1.12695 63.4891C1.1775 62.8966 1.215 62.447 1.26392 61.8614C2.22921 61.7847 3.16026 61.661 4.09457 61.6471C5.71861 61.6244 7.35732 61.539 8.96342 61.7377C9.7999 61.8405 10.6331 62.3128 11.4451 62.7502C12.4381 63.2852 13.061 64.059 13.6431 64.9338C13.9154 65.3434 13.9807 65.9115 14.1796 66.5319H11.9539C11.2674 65.014 10.382 63.9161 8.74982 63.3776C6.56161 62.6544 4.47123 63.0081 2.33683 63.3985C1.99441 63.4612 1.64058 63.4525 1.13021 63.4891H1.12695Z" fill="#805647"/>
<path d="M258.611 66.6185C256.823 66.6185 255.104 66.332 253.454 65.759C251.826 65.1859 250.566 64.4295 249.672 63.4898L250.669 61.53C251.54 62.401 252.697 63.1116 254.142 63.6617C255.586 64.1889 257.075 64.4525 258.611 64.4525C260.766 64.4525 262.382 64.0628 263.459 63.2835C264.536 62.4812 265.075 61.4498 265.075 60.1891C265.075 59.2264 264.777 58.4586 264.181 57.8855C263.608 57.3125 262.897 56.877 262.049 56.579C261.201 56.2581 260.021 55.9143 258.508 55.5476C256.697 55.0892 255.253 54.6536 254.176 54.2411C253.099 53.8056 252.17 53.1523 251.391 52.2813C250.635 51.4103 250.256 50.2299 250.256 48.74C250.256 47.5252 250.577 46.4249 251.219 45.4393C251.861 44.4308 252.846 43.6285 254.176 43.0326C255.505 42.4366 257.156 42.1387 259.127 42.1387C260.502 42.1387 261.843 42.3335 263.15 42.7232C264.479 43.0899 265.625 43.6056 266.588 44.2703L265.728 46.2989C264.72 45.6342 263.642 45.1413 262.496 44.8204C261.35 44.4766 260.227 44.3047 259.127 44.3047C257.018 44.3047 255.425 44.7173 254.348 45.5425C253.293 46.3447 252.766 47.3876 252.766 48.6712C252.766 49.6339 253.053 50.4132 253.626 51.0092C254.222 51.5822 254.955 52.0292 255.826 52.3501C256.72 52.648 257.912 52.9804 259.402 53.3471C261.167 53.7826 262.588 54.2181 263.665 54.6536C264.765 55.0662 265.694 55.708 266.45 56.579C267.207 57.4271 267.585 58.5846 267.585 60.0516C267.585 61.2664 267.252 62.3781 266.588 63.3866C265.946 64.3722 264.949 65.163 263.596 65.759C262.244 66.332 260.582 66.6185 258.611 66.6185Z" fill="#805647"/>
<path d="M244.119 42.3457V66.413H242.022L226.55 46.8841V66.413H224.006V42.3457H226.103L241.609 61.8746V42.3457H244.119Z" fill="#805647"/>
<path d="M218.025 64.2125V66.413H201.006V42.3457H217.509V44.5461H203.55V53.1072H215.996V55.2733H203.55V64.2125H218.025Z" fill="#805647"/>
<path d="M172.602 42.3457H182.4C184.945 42.3457 187.191 42.8614 189.139 43.8929C191.088 44.9014 192.6 46.3225 193.678 48.1562C194.755 49.967 195.294 52.0414 195.294 54.3793C195.294 56.7173 194.755 58.8031 193.678 60.6368C192.6 62.4476 191.088 63.8687 189.139 64.9002C187.191 65.9087 184.945 66.413 182.4 66.413H172.602V42.3457ZM182.263 64.2125C184.372 64.2125 186.217 63.8 187.798 62.9748C189.38 62.1267 190.606 60.9692 191.477 59.5022C192.348 58.0123 192.784 56.3047 192.784 54.3793C192.784 52.454 192.348 50.7578 191.477 49.2908C190.606 47.801 189.38 46.6434 187.798 45.8183C186.217 44.9702 184.372 44.5461 182.263 44.5461H175.146V64.2125H182.263Z" fill="#805647"/>
<path d="M164.19 66.413L158.689 58.6771C158.07 58.7458 157.429 58.7802 156.764 58.7802H150.3V66.413H147.756V42.3457H156.764C159.835 42.3457 162.242 43.0792 163.984 44.5461C165.726 46.0131 166.597 48.0302 166.597 50.5973C166.597 52.4769 166.116 54.0699 165.153 55.3764C164.213 56.66 162.861 57.5883 161.096 58.1613L166.975 66.413H164.19ZM156.695 56.6142C159.079 56.6142 160.901 56.087 162.162 55.0326C163.423 53.9782 164.053 52.4998 164.053 50.5973C164.053 48.649 163.423 47.1592 162.162 46.1277C160.901 45.0733 159.079 44.5461 156.695 44.5461H150.3V56.6142H156.695Z" fill="#805647"/>
<path d="M138.204 59.9836H124.795L121.907 66.413H119.26L130.262 42.3457H132.772L143.774 66.413H141.092L138.204 59.9836ZM137.276 57.9207L131.5 44.9931L125.724 57.9207H137.276Z" fill="#805647"/>
<path d="M113.469 54.3786H115.91V63.5585C114.787 64.5441 113.457 65.3005 111.921 65.8277C110.386 66.3549 108.77 66.6185 107.074 66.6185C104.667 66.6185 102.501 66.0913 100.575 65.0369C98.6501 63.9826 97.1373 62.5271 96.037 60.6705C94.9368 58.7909 94.3867 56.6936 94.3867 54.3786C94.3867 52.0636 94.9368 49.9777 96.037 48.1211C97.1373 46.2416 98.6501 44.7746 100.575 43.7202C102.501 42.6659 104.678 42.1387 107.108 42.1387C108.942 42.1387 110.626 42.4366 112.162 43.0326C113.698 43.6056 114.993 44.4652 116.047 45.6112L114.466 47.2272C112.563 45.3476 110.145 44.4079 107.211 44.4079C105.263 44.4079 103.498 44.8434 101.916 45.7144C100.358 46.5625 99.1314 47.7544 98.2375 49.2901C97.3436 50.8029 96.8966 52.4991 96.8966 54.3786C96.8966 56.2581 97.3436 57.9543 98.2375 59.4671C99.1314 60.9799 100.358 62.1718 101.916 63.0428C103.475 63.9138 105.228 64.3493 107.177 64.3493C109.652 64.3493 111.75 63.7304 113.469 62.4927V54.3786Z" fill="#805647"/>
<path d="M274.153 17.9836H260.744L257.856 24.413H255.209L266.211 0.345703H268.721L279.723 24.413H277.041L274.153 17.9836ZM273.225 15.9207L267.449 2.9931L261.673 15.9207H273.225Z" fill="#805647"/>
<path d="M256.305 0.345703L245.647 24.413H243.137L232.479 0.345703H235.229L244.443 21.2498L253.726 0.345703H256.305Z" fill="#805647"/>
<path d="M218.713 24.6185C216.329 24.6185 214.163 24.0913 212.215 23.037C210.29 21.9597 208.777 20.4927 207.676 18.6361C206.599 16.7795 206.061 14.6936 206.061 12.3786C206.061 10.0636 206.599 7.97772 207.676 6.12111C208.777 4.26449 210.29 2.80899 212.215 1.75462C214.163 0.67732 216.329 0.138672 218.713 0.138672C221.097 0.138672 223.24 0.66586 225.142 1.72023C227.068 2.77461 228.581 4.24157 229.681 6.12111C230.781 7.97772 231.331 10.0636 231.331 12.3786C231.331 14.6936 230.781 16.7909 229.681 18.6705C228.581 20.5271 227.068 21.9826 225.142 23.037C223.24 24.0913 221.097 24.6185 218.713 24.6185ZM218.713 22.3493C220.616 22.3493 222.335 21.9253 223.87 21.0772C225.406 20.2062 226.609 19.0143 227.48 17.5015C228.351 15.9658 228.787 14.2581 228.787 12.3786C228.787 10.4991 228.351 8.80289 227.48 7.29009C226.609 5.75437 225.406 4.56246 223.87 3.71438C222.335 2.84337 220.616 2.40787 218.713 2.40787C216.811 2.40787 215.08 2.84337 213.521 3.71438C211.986 4.56246 210.771 5.75437 209.877 7.29009C209.006 8.80289 208.57 10.4991 208.57 12.3786C208.57 14.2581 209.006 15.9658 209.877 17.5015C210.771 19.0143 211.986 20.2062 213.521 21.0772C215.08 21.9253 216.811 22.3493 218.713 22.3493Z" fill="#805647"/>
<path d="M192.082 13.1014L187.165 18.0867V24.413H184.621V0.345703H187.165V14.8892L201.296 0.345703H204.219L193.801 11.2447L204.941 24.413H201.915L192.082 13.1014Z" fill="#805647"/>
<path d="M174.246 0.345703H176.79V24.413H174.246V0.345703Z" fill="#805647"/>
<path d="M154 0.345703H156.544V22.2125H170.022V24.413H154V0.345703Z" fill="#805647"/>
<path d="M144.45 17.9836H131.041L128.153 24.413H125.506L136.508 0.345703H139.018L150.02 24.413H147.338L144.45 17.9836ZM143.522 15.9207L137.746 2.9931L131.97 15.9207H143.522Z" fill="#805647"/>
<path d="M121.513 0.345703V24.413H119.072V5.15916L109.617 21.353H108.414L98.9587 5.2623V24.413H96.5176V0.345703H98.6149L109.067 18.1899L119.416 0.345703H121.513Z" fill="#805647"/>
</svg>
